<svg width="14" height="18" viewBox="0 0 14 18" fill="none" xmlns="http://www.w3.org/2000/svg">
<g clip-path="url(#clip0_14_75)">
<path d="M13.6573 4.16953C14.1131 3.73007 14.1131 3.0164 13.6573 2.57695C13.2016 2.1375 12.4615 2.1375 12.0058 2.57695L0.339111 13.827C-0.116618 14.2664 -0.116618 14.9801 0.339111 15.4195C0.79484 15.859 1.53494 15.859 1.99067 15.4195L13.6573 4.16953ZM4.66672 4.5C4.66672 3.90326 4.42088 3.33096 3.9833 2.90901C3.54571 2.48705 2.95222 2.25 2.33338 2.25C1.71454 2.25 1.12105 2.48705 0.683466 2.90901C0.245882 3.33096 4.88211e-05 3.90326 4.88211e-05 4.5C4.88211e-05 5.09673 0.245882 5.66903 0.683466 6.09099C1.12105 6.51294 1.71454 6.75 2.33338 6.75C2.95222 6.75 3.54571 6.51294 3.9833 6.09099C4.42088 5.66903 4.66672 5.09673 4.66672 4.5ZM14 13.5C14 12.9033 13.7542 12.331 13.3166 11.909C12.879 11.4871 12.2856 11.25 11.6667 11.25C11.0479 11.25 10.4544 11.4871 10.0168 11.909C9.57922 12.331 9.33338 12.9033 9.33338 13.5C9.33338 14.0967 9.57922 14.669 10.0168 15.091C10.4544 15.5129 11.0479 15.75 11.6667 15.75C12.2856 15.75 12.879 15.5129 13.3166 15.091C13.7542 14.669 14 14.0967 14 13.5Z" fill="#EBB323"/>
</g>
<defs>
<clipPath id="clip0_14_75">
<rect width="14" height="18" fill="white"/>
</clipPath>
</defs>
</svg>
