<svg width="18" height="16" viewBox="0 0 18 16" fill="none" xmlns="http://www.w3.org/2000/svg">
<g clip-path="url(#clip0_14_209)">
<path d="M16.5094 1.91562C16.1531 0.581249 14.7812 -0.209376 13.4469 0.146874L12.9656 0.274999C12.4312 0.418749 12.1156 0.968749 12.2594 1.5L13.025 4.35625L9.64062 5.23437L9.44375 4.66875C9.30313 4.26875 8.925 4 8.5 4C8.075 4 7.69688 4.26875 7.55625 4.66875L7.13125 5.8875L3 6.95625V5.75C3 5.33437 2.66563 5 2.25 5C1.83438 5 1.5 5.33437 1.5 5.75V14H1C0.446875 14 0 14.4469 0 15C0 15.5531 0.446875 16 1 16H17C17.5531 16 18 15.5531 18 15C18 14.4469 17.5531 14 17 14H12.7094L10.625 8.04687L8.68125 8.55L9.54062 11H7.45937L8.28125 8.65625L5.95 9.25937L4.29063 14H3V9.025L13.5437 6.29062L14.3313 9.22812C14.475 9.7625 15.0219 10.0781 15.5562 9.93437L16.0406 9.80625C17.375 9.45 18.1656 8.07812 17.8094 6.74375L16.5094 1.91562ZM6.40938 14L6.75938 13H10.2406L10.5906 14H6.40938Z" fill="#EBB323"/>
</g>
<defs>
<clipPath id="clip0_14_209">
<rect width="18" height="16" fill="white"/>
</clipPath>
</defs>
</svg>
